# xmcd CD database file
#
# Track frame offsets:
#	182
#	10102
#	18480
#	30480
#	41915
#	52782
#	66777
#	82027
#	93155
#	105297
#	120220
#	134512
#
# Disc length: 1943 seconds
#
# Revision: 2
# Processed by: cddbd v1.4PL0 Copyright (c) Steve Scherf et al.
# Submitted via: CDex 1.40Beta9
#
DISCID=8807950c
DTITLE=Chet Atkins - Greatest Hits Volume 2
DYEAR=1998
DGENRE=Instrumental
TTITLE0=Cattle Call
TTITLE1=Country Gentleman
TTITLE2=Guitar Country
TTITLE3=Terry On The Turnpike
TTITLE4=You're Gonna Be Sorry
TTITLE5=Birth Of The Blues
TTITLE6=I'll See You In My Dreams
TTITLE7=I Can't Stop Loving You
TTITLE8=Do I Ever Cross Your Mind
TTITLE9=Frog Kissin'
TTITLE10=Tennessee Stud
TTITLE11=Orange Blossom Special
EXTD=YEAR: 1998 ID3G: 33
EXTT0=
EXTT1=
EXTT2=
EXTT3=
EXTT4=
EXTT5=
EXTT6=
EXTT7=
EXTT8=
EXTT9=
EXTT10=
EXTT11=
PLAYORDER=
